# xmcd
#
# Track frame offsets: 
#        150
#        16736
#        33212
#
# Disc length: 767 seconds
#
# Revision: 0
# Processed by: cddbd v1.5.2PL0 Copyright (c) Steve Scherf et al.
# Submitted via: ExactAudioCopy v0.99pb5
#
DISCID=1302fd03
DTITLE=Scooter - David Doesn't Eat
DYEAR=2011
DGENRE=Techno
TTITLE0=David Doesn't Eat (Radio Edit)
TTITLE1=David Doesn't Eat
TTITLE2=David Doesn't Eat (Eric Chase Remix)
EXTD=
EXTT0=
EXTT1=
EXTT2=
PLAYORDER=
